<?xml version="1.0" encoding="UTF-8"?><svg id="a" xmlns="http://www.w3.org/2000/svg" xmlns:xlink="http://www.w3.org/1999/xlink" viewBox="0 0 325.11 165.67"><defs><style>.c{fill:url(#b);}.d{fill:#1d71b8;}.e{fill:#575756;}.f{fill:none;stroke:#585857;stroke-miterlimit:10;stroke-width:.5px;}</style><linearGradient id="b" x1="95.11" y1="50.69" x2="95.11" y2="169.69" gradientTransform="translate(-8.03) skewX(-13)" gradientUnits="userSpaceOnUse"><stop offset="0" stop-color="#1d71b8"/><stop offset="1" stop-color="#2d2e83"/></linearGradient></defs><g><path class="e" d="M175.62,40.79l-.86,4.04h-15.56c.56-2.12,1.32-3.79,2.28-4.99,.97-1.2,2.6-2.52,4.9-3.93,2.89-1.8,4.78-3.11,5.66-3.95s1.45-1.87,1.71-3.1c.24-1.12,.14-2.01-.31-2.66-.45-.65-1.18-.97-2.2-.97-1.16,0-2.09,.42-2.79,1.26-.64,.77-1.07,1.69-1.3,2.76-.03,.15-.07,.37-.13,.68h-4.35c.07-.37,.12-.64,.16-.82,.43-2.04,1.33-3.74,2.68-5.11,1.61-1.62,3.76-2.43,6.46-2.43,2.43,0,4.2,.66,5.32,1.97,1.13,1.32,1.46,3.07,1,5.23-.32,1.51-.96,2.81-1.92,3.9-.96,1.09-2.57,2.35-4.85,3.78-1.92,1.21-3.22,2.08-3.91,2.61-.69,.53-1.25,1.11-1.68,1.73h9.7Z"/><path class="e" d="M193.28,21.58c2.69,0,4.51,1.1,5.45,3.31,.72,1.7,.66,4.54-.18,8.5-.9,4.26-2.19,7.24-3.84,8.96-1.85,1.9-4.02,2.85-6.54,2.85-2.77,0-4.63-1.1-5.55-3.31-.72-1.7-.66-4.54,.19-8.51,.9-4.24,2.18-7.22,3.84-8.94,1.83-1.9,4.05-2.85,6.65-2.85Zm-.93,3.66c-1.3,0-2.36,.71-3.17,2.14-.62,1.06-1.23,3.05-1.85,5.98-.67,3.14-.87,5.21-.61,6.21,.31,1.17,1.06,1.75,2.26,1.75,1.33,0,2.41-.69,3.21-2.07,.61-1.03,1.22-3,1.84-5.91,.67-3.17,.88-5.27,.63-6.29-.3-1.21-1.07-1.81-2.31-1.81Z"/><path class="e" d="M217.99,40.79l-.86,4.04h-15.56c.56-2.12,1.32-3.79,2.28-4.99,.97-1.2,2.6-2.52,4.9-3.93,2.89-1.8,4.78-3.11,5.66-3.95s1.45-1.87,1.71-3.1c.24-1.12,.14-2.01-.31-2.66-.45-.65-1.18-.97-2.2-.97-1.16,0-2.09,.42-2.79,1.26-.64,.77-1.07,1.69-1.3,2.76-.03,.15-.07,.37-.13,.68h-4.35c.07-.37,.12-.64,.16-.82,.43-2.04,1.33-3.74,2.68-5.11,1.61-1.62,3.76-2.43,6.46-2.43,2.43,0,4.2,.66,5.32,1.97,1.13,1.32,1.46,3.07,1,5.23-.32,1.51-.96,2.81-1.92,3.9-.96,1.09-2.57,2.35-4.85,3.78-1.92,1.21-3.22,2.08-3.91,2.61-.69,.53-1.25,1.11-1.68,1.73h9.7Z"/><path class="e" d="M239.18,40.79l-.86,4.04h-15.56c.56-2.12,1.32-3.79,2.28-4.99,.97-1.2,2.6-2.52,4.9-3.93,2.89-1.8,4.78-3.11,5.66-3.95s1.45-1.87,1.71-3.1c.24-1.12,.14-2.01-.31-2.66-.45-.65-1.18-.97-2.2-.97-1.16,0-2.09,.42-2.79,1.26-.64,.77-1.07,1.69-1.3,2.76-.03,.15-.07,.37-.13,.68h-4.35c.07-.37,.12-.64,.16-.82,.43-2.04,1.33-3.74,2.68-5.11,1.61-1.62,3.76-2.43,6.46-2.43,2.43,0,4.2,.66,5.32,1.97,1.13,1.32,1.46,3.07,1,5.23-.32,1.51-.96,2.81-1.92,3.9-.96,1.09-2.57,2.35-4.85,3.78-1.92,1.21-3.22,2.08-3.91,2.61-.69,.53-1.25,1.11-1.68,1.73h9.7Z"/><path class="e" d="M247.45,40.71l3.13-14.72h9.2l1.14-5.36h3.77l-1.14,5.36h9.01l-3.13,14.72h-3.77l.32-1.5h-5.24l-1.95,9.17h-3.77l1.95-9.17h-5.43l-.32,1.5h-3.77Zm4.89-5.27h5.43l1.21-5.68h-5.43l-1.21,5.68Zm9.2,0h5.24l1.21-5.68h-5.24l-1.21,5.68Z"/><path class="e" d="M280.51,46.8l-.29,1.34h-3.03l5.6-26.36h23.67l-5.6,26.36h-3.03l.29-1.34h-17.61Zm.64-2.99h17.61l4.04-19.03h-17.61l-4.04,19.03Zm14.7-4.56h3.46l-.64,2.99h-16.74l.64-2.99h6.54l.82-3.84h-5.56l.64-2.99h5.56l.7-3.27h-6.38l.64-2.99h16.26l-.64,2.99h-6.66l-.7,3.27h5.6l-.64,2.99h-1.86c.43,.71,.81,1.64,1.14,2.77l-2.17,1.07Zm-.49,0c-.02-.11-.07-.28-.13-.51-.14-.52-.37-1.09-.71-1.72l-.29-.57,2.13-1.04h-3.23l-.82,3.84h3.04Z"/></g><path class="c" d="M72.07,78.51l32.9-25.52H51.8l1.76-7.63h-7.93l-3.59,15.55h41.15l-12.45,9.65H28.7l7.56-32.76H100.74l33.81-26.35H53.75L30.08,29.81,7.84,126.1l19.87,30.69,15.93-68.97h-7.92l-10.81,46.82-7.99-13.01,9.96-43.12h45.2ZM54.97,19.48h57.68l-13.41,10.4H41.49l13.48-10.4Z"/><g><path class="e" d="M65.34,132.73c3.91-3.46,5.92-6.03,5.92-8.21,0-1.44-.77-2.43-2.25-2.43-1.04,0-1.91,.67-2.61,1.48l-1.17-1.15c1.13-1.22,2.3-1.98,4.03-1.98,2.43,0,4,1.58,4,3.98,0,2.56-2.03,5.2-4.84,7.89,.68-.07,1.51-.13,2.16-.13h3.31v1.76h-8.55v-1.21Z"/><path class="e" d="M81.31,127.26c0-4.59,1.67-6.82,4.29-6.82s4.29,2.25,4.29,6.82-1.69,6.91-4.29,6.91-4.29-2.3-4.29-6.91Zm6.59,0c0-3.8-.95-5.19-2.3-5.19s-2.3,1.39-2.3,5.19,.95,5.28,2.3,5.28,2.3-1.44,2.3-5.28Z"/><path class="e" d="M97.17,132.73c3.91-3.46,5.92-6.03,5.92-8.21,0-1.44-.77-2.43-2.25-2.43-1.04,0-1.91,.67-2.61,1.48l-1.17-1.15c1.13-1.22,2.3-1.98,4.03-1.98,2.43,0,4,1.58,4,3.98,0,2.56-2.03,5.2-4.84,7.89,.68-.07,1.51-.13,2.16-.13h3.31v1.76h-8.55v-1.21Z"/><path class="e" d="M113.09,132.73c3.91-3.46,5.92-6.03,5.92-8.21,0-1.44-.77-2.43-2.25-2.43-1.04,0-1.91,.67-2.61,1.48l-1.17-1.15c1.13-1.22,2.3-1.98,4.03-1.98,2.43,0,4,1.58,4,3.98,0,2.56-2.03,5.2-4.84,7.89,.68-.07,1.51-.13,2.16-.13h3.31v1.76h-8.55v-1.21Z"/><path class="e" d="M145.34,131.38h-6.32v3.98h-1.73v-3.98h-8.19v-1.62h2.9v-4.75h5.29v-2.48h-4.12c-.77,1.33-1.67,2.52-2.59,3.42-.32-.29-1.04-.83-1.46-1.08,1.66-1.42,3.1-3.71,3.92-6.1l1.69,.45c-.22,.56-.47,1.15-.7,1.69h10.42v1.62h-5.44v2.48h5.02v1.57h-5.02v3.19h6.32v1.62Zm-8.05-1.62v-3.19h-3.62v3.19h3.62Z"/><path class="e" d="M158.99,122.44h-6.23v-1.75h8.53v1.26c-3.12,3.89-3.6,6.81-3.82,11.99h-2.12c.23-4.84,1.08-7.94,3.64-11.51Z"/><path class="e" d="M182.65,133.1c0,1.08-.29,1.6-1.01,1.87-.76,.31-1.98,.34-3.85,.34-.11-.49-.43-1.3-.72-1.76,1.4,.07,2.84,.05,3.28,.04,.4,0,.54-.14,.54-.52v-3.15h-8.17c-.47,2.02-1.37,4.02-3.08,5.47-.25-.36-.9-.97-1.28-1.22,2.81-2.41,3.08-5.94,3.08-8.77v-5.65h11.22v13.36Zm-1.76-4.81v-2.66h-7.74c0,.83-.05,1.73-.16,2.66h7.9Zm-7.74-6.93v2.67h7.74v-2.67h-7.74Z"/><path class="e" d="M192.25,132.73c3.91-3.46,5.92-6.03,5.92-8.21,0-1.44-.77-2.43-2.25-2.43-1.04,0-1.91,.67-2.61,1.48l-1.17-1.15c1.13-1.22,2.3-1.98,4.03-1.98,2.43,0,4,1.58,4,3.98,0,2.56-2.03,5.2-4.84,7.89,.68-.07,1.51-.13,2.16-.13h3.31v1.76h-8.55v-1.21Z"/><path class="e" d="M208.2,130.65c0-1.75,1.15-2.92,2.38-3.56v-.09c-.99-.7-1.78-1.69-1.78-3.1,0-2.07,1.6-3.42,3.78-3.42,2.3,0,3.75,1.44,3.75,3.51,0,1.35-.92,2.5-1.75,3.12v.09c1.19,.68,2.23,1.71,2.23,3.51,0,1.96-1.73,3.48-4.29,3.48s-4.32-1.48-4.32-3.53Zm6.64,0c0-1.62-1.46-2.23-3.26-2.97-.92,.63-1.55,1.62-1.55,2.77,0,1.31,1.1,2.23,2.52,2.23s2.29-.79,2.29-2.03Zm-.27-6.54c0-1.22-.74-2.14-2.03-2.14-1.08,0-1.89,.74-1.89,1.93,0,1.44,1.26,2.11,2.74,2.68,.79-.74,1.19-1.58,1.19-2.47Z"/><path class="e" d="M238.35,119.99v15.11h-1.78v-1.1h-8.48v1.17h-1.71v-15.18h11.97Zm-10.26,1.69v4.39h8.48v-4.39h-8.48Zm8.48,10.62v-4.57h-8.48v4.57h8.48Z"/><path class="e" d="M248.45,134.93c1.39-.5,2.2-1.33,2.29-2.43-.07,.02-.16,.02-.25,.02-.81,0-1.51-.5-1.51-1.42s.7-1.44,1.53-1.44c1.13,0,1.73,.88,1.73,2.25,0,1.98-1.26,3.55-3.31,4.2l-.47-1.17Z"/><path class="e" d="M277.87,121.99v8.61h-1.75v-.97h-4.68v5.73h-1.75v-5.73h-4.66v1.06h-1.67v-8.7h6.34v-3.13h1.75v3.13h6.43Zm-8.17,6v-4.36h-4.66v4.36h4.66Zm6.43,0v-4.36h-4.68v4.36h4.68Z"/><path class="e" d="M301.71,119.61v15.75h-1.78v-.88h-11.42v.88h-1.69v-15.75h14.89Zm-1.78,13.32v-11.78h-11.42v11.78h11.42Zm-.85-2.77v1.39h-9.6v-1.39h3.91v-2.66h-3.19v-1.42h3.19v-2.18h-3.66v-1.48h8.98v1.48h-3.76v2.18h3.37v1.42h-3.37v2.66h2.48c-.32-.56-1.01-1.37-1.6-1.96l1.06-.58c.61,.56,1.33,1.37,1.67,1.87l-1.1,.67h1.6Z"/></g><g><path class="d" d="M123.08,74.73c1.84,4.76,5.33,9.3,9.17,11.79-1.14,1.03-2.83,3.09-3.77,4.42-3.31-2.61-6.21-6.9-8.15-11.79l-2.91,13.63h-4.17l2.85-13.38c-3.99,4.72-8.72,8.88-13.12,11.49-.38-1.29-1.22-3.34-1.95-4.42,4.92-2.44,10.35-6.99,14.26-11.75h-10.63l1.08-5.06h12.44l1.17-5.49h-9.98l1.08-5.06h9.98l1.36-6.39h4.17l-1.36,6.39h10.27l-1.08,5.06h-10.27l-1.17,5.49h12.64l-1.08,5.06h-10.83Z"/><path class="d" d="M156.93,76.19c1.87,4.46,5.19,8.57,8.82,10.8-1.11,1.03-2.78,3.04-3.64,4.29-3.39-2.57-6.31-6.86-8.23-11.75l-2.81,13.16h-4.14l2.79-13.08c-4.01,4.8-8.75,9-13.24,11.58-.36-1.24-1.14-3.26-1.84-4.29,4.61-2.23,9.72-6.3,13.51-10.72h-10.31l1.04-4.89h6.2c.08-2.06-.33-5.06-.89-7.37l3.74-1.67h-5.58l1.04-4.89h11.06l1-4.67h4.14l-1,4.67h11.36l-1.04,4.89h-5.45l3.46,1.46c-1.74,2.79-3.6,5.66-5.07,7.59h6.37l-1.04,4.89h-10.27Zm-8.84-13.93c.65,2.31,1.22,5.36,1.2,7.46l-3.46,1.59h5.68l1.93-9.05h-5.35Zm9.49,0l-1.93,9.05h5.51l-2.49-1.24c1.4-2.1,3.27-5.32,4.46-7.8h-5.55Z"/><path class="d" d="M189.62,69.76l-.95,4.46h10.47l-.98,4.59h-5.19l2.95,1.54c-1.66,2.4-3.49,4.97-4.9,6.82h7.06l-1,4.67h-28.39l1-4.67h6.47c-.1-1.97-.62-4.8-1.24-6.95l2.89-1.41h-4.76l.98-4.59h10.44l.95-4.46h-6.66l.45-2.1c-1.56,.86-3.14,1.63-4.73,2.32-.21-1.5-.88-3.43-1.59-4.72,6.66-2.32,13.5-6.65,17.98-13.03l3.24,2.19c-.42,.56-.83,1.11-1.29,1.72,2.41,3.77,6.97,7.33,11.51,9.13-1.12,1.11-2.77,3.13-3.64,4.46-1.33-.69-2.66-1.54-3.93-2.49l-.54,2.53h-6.6Zm-11.09,9.05c.7,2.1,1.34,4.93,1.4,6.82l-3.02,1.54h4.79l1.78-8.36h-4.96Zm15.79-13.72c-1.71-1.67-3.24-3.56-4.49-5.57-2.03,2.14-4.22,3.94-6.51,5.57h11Zm-6.64,13.72l-1.78,8.36h4.1l-1.94-1.2c1.43-1.93,3.29-4.93,4.42-7.16h-4.79Z"/><path class="d" d="M217.96,87.81c-.39,1.84-.82,2.92-1.87,3.56-.96,.64-2.15,.69-3.76,.69,.14-1.11,.12-2.7,0-3.82,.84,.04,1.76,.04,2.03,.04,.3,0,.42-.13,.5-.51l2.79-13.08h-9.03l-3.84,18.01h-2.95l4.64-21.74h15.1l-3.6,16.85Zm-5.46-3.77l-1.54,7.2h-2.76l1.54-7.2h-2.36l.66-3.09h3.68c1-1.76,2.25-4.07,3.01-5.79l2.1,1.24c-.94,1.46-1.88,3.13-2.78,4.54h1.44l-.66,3.09h-2.33Zm8.49-14.58h-13.13l1.99-9.3h13.13l-1.99,9.3Zm-11.53-15.18h16.31l-.92,4.29h-16.31l.92-4.29Zm.03,26.62c0-1.24-.19-3.13-.54-4.54l2.2-.94c.4,1.37,.69,3.21,.7,4.42l-2.36,1.07Zm9.28-17.36h-6.4l-.53,2.49h6.4l.53-2.49Zm10.09,29.15c.1-.94,.22-2.1,.29-3.34-3.73,.86-7.49,1.71-10.47,2.44l.17-4.63c1.42-.21,3.16-.51,5.05-.9l1.67-7.85h-4.4l3.76-17.62h4.4l1.59-7.46h3.38l-1.59,7.46h4.46l-3.76,17.62h-4.46l-1.53,7.16,1.89-.39c.02-1.46,.05-3,.01-4.37l2.77-.69c.16,3.73,.08,8.7-.21,11.62l-3.02,.94Zm-4.03-18.65h2l1.9-8.92h-2l-1.9,8.92Zm8.53-8.92h-1.9l-1.9,8.92h1.9l1.9-8.92Z"/><path class="d" d="M271,57.2c-1.73,3.64-3.86,6.56-6.21,8.96,1.57,1.24,3.52,2.27,5.96,2.83-1.04,1.03-2.51,3-3.28,4.29-2.61-.86-4.66-2.31-6.34-3.99-2.83,2.02-5.94,3.52-9.18,4.54-.11-.86-.36-2.02-.69-2.92l-3.78,17.71h-2.79l.38-1.76-8.57,.94,6-28.12h2.82l-5.08,23.79,1.24-.13,6.43-30.14h3.05l-6.37,29.84,1.31-.13,4.96-23.24h2.79l-.59,2.79c3.13-2.23,6.27-5.83,8.39-9.77l3.28,1.24c-.39,.73-.8,1.46-1.21,2.14h4.66l.69-.13,2.13,1.24Zm-11.4,27.44h6.83l-.85,3.99h-6.83l-.87,4.07h-3.84l.87-4.07h-6.53l.85-3.99h6.53l.4-1.89h-5.12l.79-3.69h5.12l.37-1.71h-5.32l.78-3.64h5.32l.48-2.27h3.84l-.48,2.27h5.45l-.78,3.64h-5.45l-.37,1.71h5.38l-.79,3.69h-5.38l-.4,1.89Zm-8.07-14.92c2.58-.73,5.13-1.89,7.43-3.43-.51-.86-.93-1.8-1.28-2.74-1.01,1.03-2.02,1.93-3.05,2.74-.28-.86-1.04-2.66-1.59-3.6l-1.5,7.03Zm9.27-9.73l-.26,.3c.4,1.2,.98,2.31,1.74,3.39,1.19-1.12,2.23-2.31,3.18-3.69h-4.66Z"/><path class="d" d="M293.2,78.98c2.16,3.26,4.22,7.76,4.98,10.98l-4.07,2.79c-.18-.99-.5-2.1-.91-3.26-16.51,1.54-18.81,1.71-20.59,2.53,.04-1.11-.06-3.73-.21-5.19,.91-.26,1.78-.94,3.04-2.1,.95-.77,3.22-3.09,5.59-5.92h-7.94l1.05-4.93h27.14l-1.05,4.93h-13.79c-2.03,2.44-4.37,4.93-6.66,7.07l11.6-.86c-.64-1.33-1.3-2.66-2.01-3.82l3.82-2.23Zm1.9-24.27c-.49,.6-.98,1.2-1.47,1.8,2.43,3.52,6.8,7.37,11.19,9.39-1.08,1.07-2.77,3.13-3.69,4.5-1.51-.9-3.01-2.06-4.38-3.3l-.68,3.17h-15.33l.6-2.83c-1.86,1.2-3.75,2.36-5.74,3.39-.28-1.29-1.12-3.52-1.82-4.54,6.9-3.09,13.95-8.32,18.24-13.81l3.07,2.23Zm.14,10.89c-1.76-1.89-3.37-3.9-4.56-5.87-2.1,2.14-4.38,4.07-6.73,5.87h11.29Z"/></g><line class="f" x1="67.65" y1="108.2" x2="300.78" y2="108.2"/></svg>