<?xml version="1.0" encoding="UTF-8"?><svg id="a" xmlns="http://www.w3.org/2000/svg" xmlns:xlink="http://www.w3.org/1999/xlink" viewBox="0 0 405.67 149.63"><defs><style>.c{fill:url(#b);}.d,.e{fill:#1d71b8;}.f{fill:#575756;}.e{stroke:#1d71b8;stroke-width:2px;}.e,.g{stroke-miterlimit:10;}.g{fill:none;stroke:#585857;stroke-width:.5px;}</style><linearGradient id="b" x1="134.17" y1="44.24" x2="134.17" y2="143.86" gradientTransform="translate(-60.38) skewX(-13)" gradientUnits="userSpaceOnUse"><stop offset="0" stop-color="#1d71b8"/><stop offset="1" stop-color="#2d2e83"/></linearGradient></defs><g><path class="f" d="M83.6,86.4l-3.48,15.08h-3.88l.35-1.51h-7.01l-2.18,9.43h-3.91l2.18-9.43h-6.98l-.38,1.66h-3.72l3.52-15.23h10.7l1.21-5.23h3.91l-1.21,5.23h10.88Zm-17.11,10.03l1.5-6.5h-6.98l-1.5,6.5h6.98Zm10.91,0l1.5-6.5h-7.01l-1.5,6.5h7.01Z"/><path class="f" d="M129.22,82.35l-6.24,27.04h-3.94l.35-1.51h-18.36l-.35,1.51h-3.75l6.24-27.04h26.04Zm-9.06,22.21l4.37-18.91h-18.36l-4.37,18.91h18.36Zm0-4.68l-.68,2.93h-16.06l.68-2.93h6.23l.82-3.57h-5.12l.7-3.02h5.12l.66-2.84h-5.89l.73-3.14h15.22l-.73,3.14h-5.92l-.66,2.84h5.24l-.7,3.02h-1.71c.64,.85,1.38,1.96,1.7,2.69l-1.81,.88h2.17Zm-6.42,0h3.1c-.34-.82-.97-1.84-1.5-2.63l2.11-.94h-2.88l-.82,3.57Z"/><path class="f" d="M161.04,96.7c1.92,3.35,5.4,6.56,9.12,8.31-1.03,.72-2.55,2.17-3.38,3.11-3.23-1.84-6.13-4.86-8.16-8.31l-2.22,9.61h-3.94l2.18-9.43c-3.59,3.32-7.89,6.25-11.95,8.1-.41-.91-1.29-2.36-2.01-3.11,4.55-1.72,9.51-4.92,13.01-8.28h-10.05l.82-3.56h11.75l.89-3.87h-9.43l.82-3.57h9.43l1.04-4.5h3.94l-1.04,4.5h9.71l-.82,3.57h-9.71l-.89,3.87h11.94l-.82,3.56h-10.23Z"/><path class="f" d="M205.76,97.73c1.94,3.14,5.24,6.04,8.75,7.61-1.01,.72-2.51,2.14-3.27,3.02-3.3-1.81-6.23-4.83-8.23-8.28l-2.14,9.27h-3.91l2.13-9.21c-3.6,3.38-7.91,6.34-12.05,8.16-.39-.88-1.21-2.3-1.91-3.02,4.27-1.57,8.93-4.44,12.35-7.55h-9.74l.8-3.44h5.86c0-1.45-.51-3.56-1.13-5.2l3.47-1.18h-5.27l.8-3.44h10.45l.76-3.29h3.91l-.76,3.29h10.73l-.8,3.44h-5.15l3.33,1.03c-1.54,1.96-3.18,3.99-4.49,5.35h6.01l-.8,3.44h-9.71Zm-8.9-9.82c.71,1.63,1.36,3.78,1.42,5.26l-3.2,1.12h5.36l1.47-6.38h-5.05Zm8.96,0l-1.47,6.38h5.21l-2.4-.88c1.24-1.48,2.88-3.75,3.91-5.5h-5.24Z"/><path class="f" d="M249.07,93.19l-.73,3.14h9.89l-.75,3.23h-4.9l2.85,1.09c-1.48,1.69-3.1,3.5-4.36,4.8h6.67l-.76,3.29h-26.82l.76-3.29h6.11c-.18-1.39-.77-3.38-1.44-4.89l2.68-1h-4.5l.75-3.23h9.86l.73-3.14h-6.29l.34-1.48c-1.44,.6-2.9,1.15-4.38,1.63-.25-1.06-.96-2.42-1.68-3.32,6.21-1.63,12.49-4.68,16.48-9.18l3.15,1.54c-.37,.39-.74,.79-1.15,1.21,2.42,2.66,6.87,5.17,11.23,6.43-1.02,.79-2.49,2.21-3.27,3.14-1.28-.48-2.57-1.09-3.81-1.75l-.41,1.78h-6.23Zm-10.12,6.38c.74,1.48,1.46,3.47,1.59,4.8l-2.79,1.09h4.53l1.36-5.89h-4.68Zm14.39-9.67c-1.68-1.18-3.2-2.51-4.46-3.93-1.84,1.51-3.83,2.78-5.93,3.93h10.39Zm-5.74,9.67l-1.36,5.89h3.88l-1.88-.85c1.27-1.36,2.91-3.47,3.89-5.04h-4.53Z"/><path class="f" d="M289.24,105.91c-.3,1.3-.66,2.05-1.63,2.51-.88,.45-2,.48-3.52,.48,.09-.79,0-1.9-.15-2.69,.8,.03,1.67,.03,1.92,.03,.28,0,.39-.09,.46-.36l2.13-9.21h-8.53l-2.93,12.69h-2.79l3.54-15.32h14.26l-2.74,11.87Zm2.15-12.93h-12.4l1.51-6.56h12.4l-1.51,6.56Zm-7.46,10.27l-1.17,5.08h-2.6l1.17-5.08h-2.23l.5-2.18h3.47c.88-1.24,1.96-2.87,2.62-4.08l2.03,.88c-.83,1.03-1.66,2.2-2.45,3.2h1.36l-.5,2.18h-2.2Zm-4.03-20.97h15.41l-.7,3.02h-15.41l.7-3.02Zm1.06,18.76c-.05-.88-.3-2.2-.69-3.2l2.04-.67c.43,.97,.78,2.27,.83,3.11l-2.19,.75Zm8.1-12.24h-6.05l-.4,1.75h6.05l.4-1.75Zm10.67,20.54c.06-.66,.12-1.48,.14-2.36-3.49,.6-7.01,1.21-9.79,1.72l-.02-3.26c1.34-.15,2.97-.36,4.74-.63l1.28-5.53h-4.16l2.87-12.42h4.16l1.21-5.26h3.19l-1.21,5.26h4.22l-2.87,12.42h-4.22l-1.17,5.05,1.77-.27c-.04-1.03-.07-2.11-.16-3.08l2.59-.48c.29,2.63,.41,6.13,.25,8.19l-2.82,.66Zm-4.53-13.14h1.89l1.45-6.28h-1.89l-1.45,6.28Zm7.71-6.28h-1.8l-1.45,6.28h1.8l1.45-6.28Z"/><path class="f" d="M350.84,84.34c-1.49,2.57-3.39,4.62-5.52,6.31,1.53,.88,3.41,1.6,5.74,1.99-.94,.73-2.26,2.12-2.93,3.02-2.5-.6-4.49-1.63-6.14-2.81-2.59,1.42-5.47,2.48-8.49,3.2-.14-.6-.42-1.42-.77-2.05l-2.88,12.48h-2.63l.29-1.24-8.06,.67,4.58-19.82h2.67l-3.87,16.77,1.17-.09,4.9-21.24h2.88l-4.85,21.03,1.23-.09,3.78-16.38h2.63l-.45,1.96c2.87-1.57,5.69-4.11,7.54-6.89l3.15,.88c-.34,.51-.7,1.03-1.06,1.51h4.4l.64-.09,2.06,.88Zm-9.7,19.33h6.45l-.65,2.81h-6.45l-.66,2.87h-3.63l.66-2.87h-6.17l.65-2.81h6.17l.31-1.33h-4.84l.6-2.6h4.84l.28-1.21h-5.02l.59-2.57h5.02l.37-1.6h3.63l-.37,1.6h5.15l-.59,2.57h-5.15l-.28,1.21h5.09l-.6,2.6h-5.09l-.31,1.33Zm-8.21-10.51c2.41-.51,4.77-1.33,6.88-2.42-.51-.6-.95-1.27-1.32-1.93-.91,.72-1.83,1.36-2.77,1.93-.29-.6-1.09-1.87-1.65-2.54l-1.14,4.95Zm8.37-6.86l-.24,.21c.42,.84,1.02,1.63,1.77,2.39,1.08-.79,2.02-1.63,2.86-2.6h-4.4Z"/><path class="f" d="M385.35,99.69c2.17,2.3,4.29,5.47,5.13,7.73l-3.74,1.96c-.21-.7-.56-1.48-.99-2.3-15.54,1.09-17.7,1.21-19.36,1.78,0-.78-.2-2.63-.4-3.65,.85-.18,1.64-.67,2.79-1.48,.87-.54,2.92-2.18,5.06-4.17h-7.5l.8-3.47h25.64l-.8,3.47h-13.02c-1.82,1.72-3.93,3.47-6.02,4.98l10.93-.6c-.65-.94-1.33-1.87-2.05-2.69l3.53-1.57Zm.85-17.1c-.44,.42-.88,.85-1.32,1.27,2.44,2.48,6.71,5.2,10.94,6.62-.98,.75-2.49,2.21-3.31,3.17-1.46-.63-2.92-1.45-4.27-2.33l-.52,2.24h-14.48l.46-1.99c-1.71,.85-3.45,1.66-5.29,2.39-.32-.91-1.2-2.48-1.9-3.2,6.39-2.18,12.86-5.86,16.69-9.73l2.99,1.57Zm.55,7.67c-1.74-1.33-3.33-2.75-4.53-4.14-1.9,1.51-3.98,2.87-6.13,4.14h10.67Z"/></g><g><path class="f" d="M55.42,133.05c2.6-2.88,3.95-5.03,3.95-6.84,0-1.2-.52-2.03-1.5-2.03-.7,0-1.27,.56-1.74,1.23l-.78-.96c.76-1.02,1.54-1.65,2.69-1.65,1.62,0,2.66,1.32,2.66,3.32,0,2.13-1.35,4.33-3.23,6.57,.46-.06,1.01-.1,1.44-.1h2.21v1.47h-5.7v-1Z"/><path class="f" d="M64.93,131.31c0-1.46,.77-2.43,1.58-2.97v-.08c-.66-.58-1.19-1.41-1.19-2.58,0-1.72,1.07-2.85,2.52-2.85,1.54,0,2.49,1.2,2.49,2.92,0,1.12-.61,2.08-1.16,2.59v.08c.79,.57,1.49,1.42,1.49,2.92,0,1.63-1.15,2.89-2.85,2.89s-2.88-1.23-2.88-2.94Zm4.43,0c0-1.35-.97-1.86-2.17-2.47-.61,.52-1.03,1.35-1.03,2.31,0,1.09,.73,1.86,1.68,1.86s1.52-.66,1.52-1.7Zm-.18-5.44c0-1.02-.49-1.79-1.36-1.79-.72,0-1.26,.61-1.26,1.6,0,1.2,.84,1.75,1.82,2.24,.53-.62,.79-1.32,.79-2.05Z"/><path class="f" d="M79.56,132.42l.97-.89c.37,.86,.85,1.2,1.43,1.2,.89,0,1.33-.6,1.33-2.22v-7.5h1.39v7.67c0,1.98-.77,3.57-2.57,3.57-1.19,0-2-.61-2.55-1.83Z"/><path class="f" d="M89.55,129.31v-6.3h1.39v6.42c0,2.49,.79,3.3,1.89,3.3s1.93-.81,1.93-3.3v-6.42h1.34v6.3c0,3.6-1.32,4.93-3.27,4.93s-3.29-1.33-3.29-4.93Z"/><path class="f" d="M101.04,123.01h1.39v9.57h3.73v1.47h-5.12v-11.04Z"/><path class="f" d="M110.74,129.87l-2.65-6.85h1.49l1.02,2.92c.28,.83,.53,1.59,.83,2.43h.05c.29-.84,.58-1.61,.84-2.43l1.03-2.92h1.45l-2.66,6.85v4.19h-1.39v-4.19Z"/><path class="f" d="M123.27,133.05c2.6-2.88,3.95-5.03,3.95-6.84,0-1.2-.52-2.03-1.5-2.03-.7,0-1.27,.56-1.74,1.23l-.78-.96c.76-1.02,1.54-1.65,2.69-1.65,1.62,0,2.66,1.32,2.66,3.32,0,2.13-1.35,4.33-3.23,6.57,.46-.06,1.01-.1,1.44-.1h2.21v1.47h-5.7v-1Z"/><path class="f" d="M132.79,128.49c0-3.82,1.12-5.68,2.85-5.68s2.85,1.88,2.85,5.68-1.13,5.76-2.85,5.76-2.85-1.92-2.85-5.76Zm4.39,0c0-3.16-.64-4.32-1.54-4.32s-1.54,1.16-1.54,4.32,.64,4.4,1.54,4.4,1.54-1.2,1.54-4.4Z"/><path class="f" d="M142.23,133.05c2.6-2.88,3.95-5.03,3.95-6.84,0-1.2-.52-2.03-1.5-2.03-.7,0-1.27,.56-1.74,1.23l-.78-.96c.76-1.02,1.54-1.65,2.69-1.65,1.62,0,2.66,1.32,2.66,3.32,0,2.13-1.35,4.33-3.23,6.57,.46-.06,1.01-.1,1.44-.1h2.21v1.47h-5.7v-1Z"/><path class="f" d="M151.71,133.05c2.6-2.88,3.95-5.03,3.95-6.84,0-1.2-.52-2.03-1.5-2.03-.7,0-1.27,.56-1.74,1.23l-.78-.96c.76-1.02,1.54-1.65,2.69-1.65,1.62,0,2.66,1.32,2.66,3.32,0,2.13-1.35,4.33-3.23,6.57,.46-.06,1.01-.1,1.44-.1h2.21v1.47h-5.7v-1Z"/><path class="f" d="M161.3,136.08c.82-.42,1.3-1.17,1.31-2.05-.05,.01-.08,.01-.13,.01-.49,0-.92-.39-.92-1.11,0-.67,.43-1.11,.96-1.11,.67,0,1.07,.71,1.07,1.86,0,1.57-.73,2.79-1.97,3.38l-.31-.98Z"/><path class="f" d="M172.9,128.56c0-3.6,1.75-5.76,3.98-5.76,1.1,0,1.97,.66,2.51,1.4l-.76,1.11c-.46-.58-1.01-.99-1.73-.99-1.52,0-2.58,1.59-2.58,4.18s.98,4.23,2.54,4.23c.8,0,1.43-.45,1.96-1.17l.74,1.09c-.71,1.02-1.61,1.59-2.75,1.59-2.22,0-3.92-2.07-3.92-5.68Z"/><path class="f" d="M183.77,123.01h1.39v4.5h3.78v-4.5h1.39v11.04h-1.39v-5.03h-3.78v5.03h-1.39v-11.04Z"/><path class="f" d="M195.29,123.01h1.39v11.04h-1.39v-11.04Z"/><path class="f" d="M201.64,123.01h1.43l2.93,6.48,.92,2.34h.06c-.07-1.14-.18-2.48-.18-3.67v-5.15h1.32v11.04h-1.43l-2.93-6.51-.92-2.31h-.06c.07,1.14,.18,2.42,.18,3.62v5.21h-1.32v-11.04Z"/><path class="f" d="M217.17,130.9h-3.07l-.76,3.15h-1.42l2.93-11.04h1.61l2.93,11.04h-1.48l-.74-3.15Zm-.34-1.36l-.35-1.49c-.3-1.2-.56-2.43-.84-3.67h-.05c-.25,1.26-.53,2.47-.82,3.67l-.36,1.49h2.41Z"/><path class="f" d="M238.58,133.05c2.6-2.88,3.95-5.03,3.95-6.84,0-1.2-.52-2.03-1.5-2.03-.7,0-1.27,.56-1.74,1.23l-.78-.96c.76-1.02,1.54-1.65,2.69-1.65,1.62,0,2.66,1.32,2.66,3.32,0,2.13-1.35,4.33-3.23,6.57,.46-.06,1.01-.1,1.44-.1h2.21v1.47h-5.7v-1Z"/><path class="f" d="M248.09,128.49c0-3.82,1.12-5.68,2.85-5.68s2.85,1.88,2.85,5.68-1.13,5.76-2.85,5.76-2.85-1.92-2.85-5.76Zm4.39,0c0-3.16-.64-4.32-1.54-4.32s-1.54,1.16-1.54,4.32,.64,4.4,1.54,4.4,1.54-1.2,1.54-4.4Z"/><path class="f" d="M257.54,133.05c2.6-2.88,3.95-5.03,3.95-6.84,0-1.2-.52-2.03-1.5-2.03-.7,0-1.27,.56-1.74,1.23l-.78-.96c.76-1.02,1.54-1.65,2.69-1.65,1.62,0,2.66,1.32,2.66,3.32,0,2.13-1.35,4.33-3.23,6.57,.46-.06,1.01-.1,1.44-.1h2.21v1.47h-5.7v-1Z"/><path class="f" d="M267.02,133.05c2.6-2.88,3.95-5.03,3.95-6.84,0-1.2-.52-2.03-1.5-2.03-.7,0-1.27,.56-1.74,1.23l-.78-.96c.76-1.02,1.54-1.65,2.69-1.65,1.62,0,2.66,1.32,2.66,3.32,0,2.13-1.35,4.33-3.23,6.57,.46-.06,1.01-.1,1.44-.1h2.21v1.47h-5.7v-1Z"/><path class="f" d="M287.37,131.92h-4.21v3.31h-1.15v-3.31h-5.46v-1.35h1.93v-3.96h3.53v-2.07h-2.75c-.52,1.11-1.12,2.1-1.73,2.85-.22-.24-.7-.69-.97-.9,1.1-1.19,2.06-3.09,2.61-5.08l1.13,.38c-.14,.46-.31,.96-.47,1.41h6.94v1.35h-3.62v2.07h3.35v1.31h-3.35v2.65h4.21v1.35Zm-5.36-1.35v-2.65h-2.41v2.65h2.41Z"/><path class="f" d="M295.35,124.47h-4.15v-1.46h5.68v1.05c-2.07,3.24-2.4,5.67-2.54,9.99h-1.42c.16-4.04,.72-6.62,2.42-9.58Z"/><path class="f" d="M309.98,133.35c0,.9-.19,1.33-.67,1.56-.5,.25-1.32,.29-2.57,.29-.07-.41-.29-1.08-.48-1.47,.94,.06,1.9,.04,2.18,.03,.26,0,.36-.12,.36-.44v-2.62h-5.44c-.31,1.68-.91,3.34-2.05,4.56-.17-.3-.6-.81-.85-1.02,1.87-2.01,2.05-4.95,2.05-7.3v-4.71h7.47v11.13Zm-1.18-4v-2.22h-5.16c0,.69-.04,1.44-.11,2.22h5.27Zm-5.16-5.77v2.22h5.16v-2.22h-5.16Z"/><path class="f" d="M315.26,133.05c2.6-2.88,3.95-5.03,3.95-6.84,0-1.2-.52-2.03-1.5-2.03-.7,0-1.27,.56-1.74,1.23l-.78-.96c.76-1.02,1.54-1.65,2.69-1.65,1.62,0,2.66,1.32,2.66,3.32,0,2.13-1.35,4.33-3.23,6.57,.46-.06,1.01-.1,1.44-.1h2.21v1.47h-5.7v-1Z"/><path class="f" d="M324.76,131.31c0-1.46,.77-2.43,1.58-2.97v-.08c-.66-.58-1.19-1.41-1.19-2.58,0-1.72,1.07-2.85,2.52-2.85,1.54,0,2.49,1.2,2.49,2.92,0,1.12-.61,2.08-1.16,2.59v.08c.79,.57,1.49,1.42,1.49,2.92,0,1.63-1.15,2.89-2.85,2.89s-2.88-1.23-2.88-2.94Zm4.43,0c0-1.35-.97-1.86-2.17-2.47-.61,.52-1.03,1.35-1.03,2.31,0,1.09,.73,1.86,1.68,1.86s1.52-.66,1.52-1.7Zm-.18-5.44c0-1.02-.49-1.79-1.36-1.79-.72,0-1.26,.61-1.26,1.6,0,1.2,.84,1.75,1.82,2.24,.53-.62,.79-1.32,.79-2.05Z"/><path class="f" d="M343.71,122.43v12.58h-1.19v-.92h-5.65v.97h-1.14v-12.64h7.98Zm-6.84,1.41v3.66h5.65v-3.66h-5.65Zm5.65,8.85v-3.81h-5.65v3.81h5.65Z"/><path class="f" d="M349.32,134.88c.92-.42,1.46-1.11,1.52-2.03-.05,.01-.11,.01-.17,.01-.54,0-1.01-.42-1.01-1.18s.47-1.2,1.02-1.2c.76,0,1.15,.74,1.15,1.88,0,1.65-.84,2.96-2.21,3.5l-.31-.97Z"/><path class="f" d="M367.8,124.09v7.17h-1.16v-.81h-3.12v4.77h-1.16v-4.77h-3.11v.89h-1.12v-7.25h4.22v-2.61h1.16v2.61h4.28Zm-5.44,5v-3.63h-3.11v3.63h3.11Zm4.28,0v-3.63h-3.12v3.63h3.12Z"/><path class="f" d="M382.56,122.11v13.12h-1.19v-.73h-7.6v.73h-1.13v-13.12h9.92Zm-1.19,11.1v-9.81h-7.6v9.81h7.6Zm-.56-2.31v1.16h-6.39v-1.16h2.6v-2.22h-2.12v-1.18h2.12v-1.82h-2.43v-1.23h5.98v1.23h-2.51v1.82h2.24v1.18h-2.24v2.22h1.65c-.22-.46-.67-1.14-1.07-1.63l.71-.48c.41,.46,.89,1.14,1.12,1.56l-.73,.55h1.07Z"/></g><g><path class="d" d="M93.48,69.76h-5l7.11-31.25h5l-7.11,31.25Z"/><path class="d" d="M127.47,72.23l-17.59-24.14-4.94,21.67h-5l7.66-33.64,17.58,24.17,4.95-21.78h5l-7.66,33.72Z"/><path class="d" d="M160.71,69.76h-5.35l-1.57-8.4h-11.5l-5.49,8.4h-5.61l22.7-33.95,6.83,33.95Zm-15.32-13.12h7.47l-1.67-8.85-5.8,8.85Z"/><path class="d" d="M191.57,72.23l-17.59-24.14-4.94,21.67h-5l7.66-33.64,17.58,24.17,4.95-21.78h5l-7.66,33.72Z"/><path class="d" d="M213.2,70.27c-4.32,0-8.04-1.69-10.48-4.75-2.46-3.09-3.28-7.15-2.29-11.45,2.01-8.86,10.87-16.07,19.74-16.07,3.51,0,6.45,1.05,8.75,3.12l.36,.33-1.47,6.31-1.07-1.45c-1.68-2.28-4.4-3.59-7.46-3.59-6.11,0-12.48,5.31-13.9,11.6-.7,3.02-.13,5.98,1.57,8.12,1.6,2.01,4.01,3.11,6.81,3.11,2.98,0,6.47-1.4,9.32-3.74l1.86-1.53-1.51,6.77-.3,.18c-3.17,1.95-6.7,3.03-9.94,3.03Z"/><path class="d" d="M245.7,69.76h-17.05l7.11-31.25h17.04l-1.06,4.72h-12.05l-1.61,7.13h11.71l-1.12,4.72h-11.69l-2.28,9.96h12.04l-1.06,4.72Z"/></g><g><path class="f" d="M326.18,12.11c1.26-1.08,3.04-1.62,5.35-1.62,1.28,0,2.31,.15,3.11,.44,.8,.29,1.41,.7,1.82,1.23,.42,.53,.66,1.16,.74,1.91,.08,.75,.04,1.59-.12,2.52-.2,1.17-.62,2.15-1.25,2.92s-1.35,1.43-2.17,1.97-1.69,1.02-2.61,1.43c-.92,.41-1.79,.83-2.6,1.26-.81,.44-1.51,.93-2.1,1.47-.59,.55-.95,1.24-1.09,2.07h10.12l-.49,2.86h-13.58l.33-1.91c.22-1.34,.66-2.45,1.31-3.34,.65-.89,1.39-1.64,2.23-2.25s1.73-1.13,2.67-1.56c.94-.44,1.82-.87,2.63-1.31s1.51-.92,2.1-1.46,.95-1.21,1.09-2.02c.2-1.13,.12-1.98-.24-2.54-.36-.56-1.17-.83-2.43-.83s-2.17,.28-2.73,.83c-.57,.56-.95,1.4-1.15,2.54h-3.34c.34-1.98,1.14-3.52,2.4-4.6Z"/><path class="f" d="M354.77,27.14c-.43,.88-.97,1.6-1.63,2.16s-1.44,.96-2.35,1.21c-.91,.25-1.95,.38-3.13,.38-2.35,0-4.02-.53-5.01-1.59-.99-1.06-1.27-2.85-.82-5.36l1.15-6.53c.22-1.26,.55-2.32,.97-3.21,.43-.88,.97-1.6,1.63-2.14,.66-.55,1.44-.95,2.35-1.2,.91-.25,1.95-.38,3.13-.38s2.18,.13,3.02,.38c.84,.25,1.5,.65,1.99,1.2,.49,.55,.8,1.26,.94,2.14,.14,.88,.1,1.95-.12,3.21l-1.15,6.53c-.22,1.26-.55,2.32-.97,3.21Zm-9.77-1.09c.05,.52,.2,.92,.44,1.22,.24,.29,.58,.5,1.02,.61s.97,.17,1.59,.17,1.18-.06,1.66-.17c.48-.11,.89-.31,1.23-.61,.34-.29,.63-.7,.87-1.22s.42-1.18,.56-1.99l1.19-6.75c.14-.81,.19-1.47,.14-1.99-.05-.52-.2-.92-.44-1.22-.24-.29-.58-.5-1.02-.61-.44-.11-.97-.17-1.59-.17s-1.17,.06-1.64,.17-.88,.31-1.23,.61c-.35,.29-.65,.7-.88,1.22-.23,.52-.42,1.18-.56,1.99l-1.19,6.75c-.14,.81-.19,1.47-.14,1.99Z"/><path class="f" d="M365.52,12.11c1.26-1.08,3.04-1.62,5.35-1.62,1.28,0,2.31,.15,3.11,.44,.8,.29,1.41,.7,1.82,1.23,.42,.53,.66,1.16,.74,1.91,.08,.75,.04,1.59-.12,2.52-.2,1.17-.62,2.15-1.25,2.92s-1.35,1.43-2.17,1.97-1.69,1.02-2.61,1.43c-.92,.41-1.79,.83-2.6,1.26-.81,.44-1.51,.93-2.1,1.47-.59,.55-.95,1.24-1.09,2.07h10.12l-.49,2.86h-13.58l.33-1.91c.22-1.34,.66-2.45,1.31-3.34,.65-.89,1.39-1.64,2.23-2.25s1.73-1.13,2.67-1.56c.94-.44,1.82-.87,2.63-1.31s1.51-.92,2.1-1.46,.95-1.21,1.09-2.02c.2-1.13,.12-1.98-.24-2.54-.36-.56-1.17-.83-2.43-.83s-2.17,.28-2.73,.83c-.57,.56-.95,1.4-1.15,2.54h-3.34c.34-1.98,1.14-3.52,2.4-4.6Z"/><path class="f" d="M384.88,12.11c1.26-1.08,3.04-1.62,5.35-1.62,1.28,0,2.31,.15,3.11,.44,.8,.29,1.41,.7,1.82,1.23,.42,.53,.66,1.16,.74,1.91,.08,.75,.04,1.59-.12,2.52-.2,1.17-.62,2.15-1.25,2.92s-1.35,1.43-2.17,1.97-1.69,1.02-2.61,1.43c-.92,.41-1.79,.83-2.6,1.26-.81,.44-1.51,.93-2.1,1.47-.59,.55-.95,1.24-1.09,2.07h10.12l-.49,2.86h-13.58l.33-1.91c.22-1.34,.66-2.45,1.31-3.34,.65-.89,1.39-1.64,2.23-2.25s1.73-1.13,2.67-1.56c.94-.44,1.82-.87,2.63-1.31s1.51-.92,2.1-1.46,.95-1.21,1.09-2.02c.2-1.13,.12-1.98-.24-2.54-.36-.56-1.17-.83-2.43-.83s-2.17,.28-2.73,.83c-.57,.56-.95,1.4-1.15,2.54h-3.34c.34-1.98,1.14-3.52,2.4-4.6Z"/></g><path class="c" d="M60.81,67.53l27.54-21.36H43.84l1.47-6.38h-6.63l-3.01,13.02h34.45l-10.42,8.08H24.5l6.33-27.43h53.98l28.31-22.06H45.47l-19.82,15.36L7.04,107.37l16.63,25.69,13.34-57.74h-6.63l-9.05,39.2-6.69-10.89,8.34-36.1H60.81Zm-14.31-49.41h48.29l-11.23,8.71H35.21l11.29-8.71Z"/><g><path class="e" d="M292.4,44.52c-1.79-1.97-4.58-3.03-7.5-3.03-6.93,0-13.52,5.78-15.07,12.63-1.58,6.77,2.36,12.55,9.25,12.55,3.03,0,6.23-1.15,8.96-3.2l-1.02,4.55c-2.72,1.39-5.93,2.17-8.64,2.17-8.81,0-14.48-7.01-12.46-15.95,2.07-9.14,11.06-16.28,20.16-16.28,2.71,0,5.28,.66,7.32,2.09l-1.01,4.47Z"/><path class="e" d="M315.76,51.08l2.84-12.47h3.85l-7.04,30.92h-3.85l3.37-14.84h-14.72l-3.37,14.84h-3.85l7.04-30.92h3.85l-2.84,12.47h14.72Z"/><path class="e" d="M326.77,69.53h-3.85l7.04-30.92h3.85l-7.04,30.92Z"/><path class="e" d="M341.62,37.14l17.65,24.32,5.2-22.84h3.85l-7.33,32.19-17.65-24.32-5.26,23.05h-3.85l7.39-32.4Z"/><path class="e" d="M375,61.78l-5.3,7.75h-4.14l22.1-32.23,7.42,32.23h-4.14l-1.75-7.75h-14.19Zm10.75-16.03l-8.34,12.51h10.99l-2.65-12.51Z"/></g><line class="g" x1="41.54" y1="115.17" x2="396.88" y2="115.17"/></svg>