<?xml version="1.0" encoding="UTF-8"?><svg id="a" xmlns="http://www.w3.org/2000/svg" xmlns:xlink="http://www.w3.org/1999/xlink" viewBox="0 0 325.11 165.67"><defs><style>.c{fill:url(#b);}.d{fill:#1d71b8;}.e{fill:#585857;}.f{fill:#5f5c5d;}.g{fill:none;stroke:#585857;stroke-miterlimit:10;stroke-width:.5px;}</style><linearGradient id="b" x1="36.79" y1="46.93" x2="36.79" y2="160.68" gradientTransform="translate(45.22) skewX(-13)" gradientUnits="userSpaceOnUse"><stop offset="0" stop-color="#1d71b8"/><stop offset="1" stop-color="#2d2e83"/></linearGradient></defs><g><path class="f" d="M55.68,138.78c0-2.28,.29-4.31,3.06-4.31,2.36,0,3.19,1.31,3.19,3.53s-1.46,5.11-2.47,6.99l-1.22,2.32h3.55v1.65h-6.31l3.48-7.35c.51-1.16,1.03-2.43,1.03-3.72,0-.78-.29-1.71-1.27-1.71-1.29,0-1.1,2.15-1.1,2.74v.38h-1.94v-.51Z"/><path class="f" d="M68.85,141.17c-1.37-.44-1.58-1.96-1.58-3.19,0-1.98,.61-3.51,2.85-3.51,2.38,0,3.1,1.22,3.1,3.51,0,1.23-.21,2.75-1.56,3.21v.02c1.52,.38,1.69,2.13,1.69,3.46,0,2.18-.4,4.46-3.1,4.46s-3.1-2.07-3.1-4.2c0-1.41,.04-3.31,1.69-3.72v-.04Zm2.56,3.86c0-.84,.04-2.81-1.18-2.81s-1.14,1.98-1.14,2.81,.06,2.39,1.14,2.39,1.18-1.58,1.18-2.39Zm-.11-6.86c0-.68-.09-1.99-1.04-1.99s-1.06,1.31-1.06,1.99,.11,2.18,1.06,2.18,1.04-1.52,1.04-2.18Z"/><path class="f" d="M103.27,145.41c0,2.03-.32,3.74-2.81,3.74-.53,0-1.16-.11-1.63-.38v-1.94c.38,.23,.8,.49,1.25,.49,1.27,0,1.29-1.04,1.29-2.01v-10.68h1.9v10.77Z"/><path class="f" d="M111.09,134.64v10.51c0,1.84,.55,2.22,1.33,2.22,1.31,0,1.42-.84,1.44-2.01v-10.71h1.9v10.16c0,1.88,.02,4.35-3.29,4.35-3.02,0-3.29-2.05-3.29-4.64v-9.88h1.9Z"/><path class="f" d="M123.59,134.64v12.67h3.19v1.65h-5.09v-14.32h1.9Z"/><path class="f" d="M131.98,134.64l1.75,6.63h.04l.3-1.84,1.22-4.79h2.03l-2.66,8.15v6.17h-1.9v-6.17l-2.83-8.15h2.05Z"/><path class="f" d="M162.75,138.78c0-2.28,.29-4.31,3.06-4.31,2.36,0,3.19,1.31,3.19,3.53s-1.46,5.11-2.47,6.99l-1.22,2.32h3.55v1.65h-6.31l3.48-7.35c.51-1.16,1.03-2.43,1.03-3.72,0-.78-.29-1.71-1.27-1.71-1.29,0-1.1,2.15-1.1,2.74v.38h-1.94v-.51Z"/><path class="f" d="M180.65,141.8c0,2.26,.17,7.33-3.25,7.33s-3.25-5.07-3.25-7.33-.17-7.33,3.25-7.33,3.25,5.07,3.25,7.33Zm-3.25-5.62c-1.31,0-1.41,2.64-1.39,5.62-.02,2.98,.08,5.62,1.39,5.62s1.41-2.64,1.39-5.62c.02-2.98-.08-5.62-1.39-5.62Z"/><path class="f" d="M185.95,138.78c0-2.28,.29-4.31,3.06-4.31,2.36,0,3.19,1.31,3.19,3.53s-1.46,5.11-2.47,6.99l-1.22,2.32h3.55v1.65h-6.31l3.48-7.35c.51-1.16,1.03-2.43,1.03-3.72,0-.78-.29-1.71-1.27-1.71-1.29,0-1.1,2.15-1.1,2.74v.38h-1.94v-.51Z"/><path class="f" d="M197.55,138.78c0-2.28,.29-4.31,3.06-4.31,2.36,0,3.19,1.31,3.19,3.53s-1.46,5.11-2.47,6.99l-1.22,2.32h3.55v1.65h-6.31l3.48-7.35c.51-1.16,1.03-2.43,1.03-3.72,0-.78-.29-1.71-1.27-1.71-1.29,0-1.1,2.15-1.1,2.74v.38h-1.94v-.51Z"/><path class="f" d="M211.17,147.42l-1.84,5.03-.97-.27,1.27-5.24,1.54,.48Z"/><path class="f" d="M243.31,136.59c-.38-.19-.78-.36-1.22-.36-2.66,0-2.68,3.88-2.68,5.66,0,1.9,.15,5.47,2.75,5.47,.42,0,.78-.1,1.14-.29v1.67c-.47,.3-.97,.4-1.52,.4-3.88,0-4.39-4.12-4.39-7.12s.36-7.58,4.26-7.58c.65,0,1.1,.09,1.65,.42v1.73Z"/><path class="f" d="M250.48,134.64v5.58h2.87v-5.58h1.9v14.32h-1.9v-7.09h-2.87v7.09h-1.9v-14.32h1.9Z"/><path class="f" d="M263.09,148.96h-1.9v-14.32h1.9v14.32Z"/><path class="f" d="M270.64,138.89l.29,4.81v5.26h-1.9v-14.32h1.82l3.34,10.89,.04-.04-.46-5.74v-5.11h1.9v14.32h-1.77l-3.34-11.04-.04,.04,.11,.93Z"/><path class="f" d="M285.46,134.64l3.08,14.32h-1.92l-.53-2.79h-2.85l-.53,2.79h-1.86l3.12-14.32h1.5Zm-.04,7.98l-.72-5.21h-.04l-1.14,7.28h2.28l-.38-2.07Z"/></g><line class="g" x1="57.82" y1="125.59" x2="285.81" y2="125.59"/><g><path class="d" d="M105.79,76.4h-5.73l8.16-35.86h5.73l-8.16,35.86Z"/><path class="d" d="M144.8,79.24l-20.18-27.7-5.67,24.87h-5.73l8.79-38.61,20.18,27.74,5.68-25h5.73l-8.79,38.69Z"/><path class="d" d="M182.95,76.4h-6.14l-1.8-9.64h-13.2l-6.3,9.64h-6.44l26.05-38.96,7.83,38.96Zm-17.58-15.05h8.57l-1.91-10.15-6.66,10.15Z"/><path class="d" d="M218.36,79.24l-20.18-27.7-5.67,24.87h-5.73l8.79-38.61,20.18,27.74,5.68-25h5.73l-8.79,38.69Z"/><path class="d" d="M243.19,76.99c-4.96,0-9.23-1.94-12.03-5.45-2.82-3.54-3.76-8.21-2.63-13.14,2.31-10.17,12.47-18.44,22.66-18.44,4.03,0,7.41,1.2,10.04,3.58l.42,.38-1.69,7.24-1.22-1.66c-1.93-2.62-5.05-4.12-8.56-4.12-7.01,0-14.32,6.1-15.95,13.31-.81,3.46-.15,6.86,1.81,9.32,1.83,2.3,4.61,3.57,7.81,3.57,3.42,0,7.43-1.6,10.7-4.29l2.13-1.75-1.74,7.77-.34,.21c-3.64,2.24-7.69,3.47-11.41,3.47Z"/><path class="d" d="M280.47,76.4h-19.56l8.16-35.86h19.56l-1.21,5.42h-13.83l-1.85,8.18h13.43l-1.28,5.42h-13.42l-2.61,11.43h13.82l-1.21,5.42Z"/></g><g><path class="e" d="M79.01,96.87c-1.07-1.61-2.94-2.58-4.97-2.58-4.55,0-7.82,4.2-8.5,8.4-.65,4.1,1.42,8.2,5.85,8.2,2.04,0,4.23-1.07,5.81-2.58l-.9,5.65c-1.91,.84-3.78,1.45-5.75,1.45-6.85,0-10.98-5.91-9.92-12.63,1.1-6.91,6.95-13.02,14.08-13.02,1.91,0,3.68,.52,5.2,1.42l-.91,5.69Z"/><path class="e" d="M128.15,100.01l1.52-9.59h4.75l-3.84,24.36h-4.75l1.71-10.89h-8.79l-1.71,10.89h-4.75l3.84-24.36h4.75l-1.52,9.59h8.79Z"/><path class="e" d="M171.79,114.77h-4.75l3.84-24.36h4.75l-3.84,24.36Z"/><path class="e" d="M212.19,89.77h3.42l10.11,17.02h.06l2.58-16.38h4.75l-3.91,24.84h-3.42l-10.14-17.02h-.06l-2.62,16.54h-4.75l3.97-25Z"/><path class="e" d="M271.5,109.63l-2.81,5.14h-5.01l13.47-25h3.68l5.27,25h-5.07l-1.07-5.14h-8.46Zm6.14-12.73h-.06l-4.1,8.85h5.78l-1.62-8.85Z"/></g><g><path class="e" d="M212.97,10.98c1.44-1.24,3.49-1.87,6.14-1.87,1.47,0,2.66,.17,3.58,.51,.92,.34,1.62,.81,2.09,1.41s.76,1.34,.85,2.2c.09,.86,.05,1.83-.14,2.9-.23,1.35-.71,2.47-1.43,3.35-.72,.88-1.55,1.64-2.5,2.27-.94,.63-1.94,1.17-3,1.64s-2.05,.95-2.98,1.45c-.93,.5-1.73,1.06-2.41,1.69-.67,.63-1.09,1.42-1.26,2.37h11.62l-.56,3.28h-15.6l.38-2.2c.26-1.54,.76-2.81,1.5-3.84,.74-1.02,1.6-1.88,2.56-2.58,.97-.7,1.99-1.3,3.07-1.8,1.08-.5,2.09-1,3.02-1.5,.93-.5,1.73-1.06,2.41-1.67s1.09-1.39,1.26-2.32c.23-1.3,.14-2.27-.28-2.91-.42-.64-1.35-.96-2.79-.96s-2.49,.32-3.14,.96c-.65,.64-1.09,1.61-1.33,2.91h-3.84c.4-2.28,1.31-4.04,2.76-5.29Z"/><path class="e" d="M245.81,28.25c-.49,1.01-1.11,1.84-1.87,2.48-.76,.64-1.66,1.1-2.7,1.4-1.05,.29-2.25,.44-3.59,.44-2.7,0-4.62-.61-5.76-1.83s-1.45-3.27-.94-6.16l1.33-7.5c.26-1.44,.63-2.67,1.12-3.68,.49-1.01,1.11-1.83,1.87-2.46,.76-.63,1.66-1.09,2.71-1.38,1.05-.29,2.25-.44,3.59-.44s2.51,.15,3.47,.44c.97,.29,1.73,.75,2.29,1.38,.56,.63,.92,1.45,1.08,2.46,.16,1.01,.12,2.24-.14,3.68l-1.33,7.5c-.26,1.44-.63,2.67-1.12,3.68Zm-11.22-1.26c.06,.59,.23,1.06,.51,1.4s.67,.57,1.17,.7,1.11,.19,1.83,.19,1.35-.06,1.9-.19,1.02-.36,1.41-.7,.73-.8,.99-1.4,.48-1.35,.65-2.29l1.36-7.75c.16-.93,.21-1.69,.16-2.29-.06-.59-.23-1.06-.51-1.4-.28-.34-.67-.57-1.17-.7s-1.11-.19-1.83-.19-1.35,.06-1.88,.19c-.54,.13-1.01,.36-1.41,.7s-.74,.8-1.01,1.4-.48,1.36-.65,2.29l-1.36,7.75c-.16,.93-.21,1.69-.16,2.29Z"/><path class="e" d="M258.16,10.98c1.44-1.24,3.49-1.87,6.14-1.87,1.47,0,2.66,.17,3.58,.51,.92,.34,1.62,.81,2.09,1.41s.76,1.34,.85,2.2c.09,.86,.05,1.83-.14,2.9-.23,1.35-.71,2.47-1.43,3.35-.72,.88-1.55,1.64-2.5,2.27-.94,.63-1.94,1.17-3,1.64s-2.05,.95-2.98,1.45c-.93,.5-1.73,1.06-2.41,1.69-.67,.63-1.09,1.42-1.26,2.37h11.62l-.56,3.28h-15.6l.38-2.2c.26-1.54,.76-2.81,1.5-3.84,.74-1.02,1.6-1.88,2.56-2.58,.97-.7,1.99-1.3,3.07-1.8,1.08-.5,2.09-1,3.02-1.5,.93-.5,1.73-1.06,2.41-1.67s1.09-1.39,1.26-2.32c.23-1.3,.14-2.27-.28-2.91-.42-.64-1.35-.96-2.79-.96s-2.49,.32-3.14,.96c-.65,.64-1.09,1.61-1.33,2.91h-3.84c.4-2.28,1.31-4.04,2.76-5.29Z"/><path class="e" d="M280.39,10.98c1.44-1.24,3.49-1.87,6.14-1.87,1.47,0,2.66,.17,3.58,.51,.92,.34,1.62,.81,2.09,1.41s.76,1.34,.85,2.2c.09,.86,.05,1.83-.14,2.9-.23,1.35-.71,2.47-1.43,3.35-.72,.88-1.55,1.64-2.5,2.27-.94,.63-1.94,1.17-3,1.64s-2.05,.95-2.98,1.45c-.93,.5-1.73,1.06-2.41,1.69-.67,.63-1.09,1.42-1.26,2.37h11.62l-.56,3.28h-15.6l.38-2.2c.26-1.54,.76-2.81,1.5-3.84,.74-1.02,1.6-1.88,2.56-2.58,.97-.7,1.99-1.3,3.07-1.8,1.08-.5,2.09-1,3.02-1.5,.93-.5,1.73-1.06,2.41-1.67s1.09-1.39,1.26-2.32c.23-1.3,.14-2.27-.28-2.91-.42-.64-1.35-.96-2.79-.96s-2.49,.32-3.14,.96c-.65,.64-1.09,1.61-1.33,2.91h-3.84c.4-2.28,1.31-4.04,2.76-5.29Z"/></g><path class="c" d="M68.02,73.52l31.45-24.39H48.64l1.68-7.29h-7.58l-3.43,14.86h39.33l-11.9,9.23H26.56l7.23-31.32h61.63L127.75,9.42H50.51L27.88,26.96,6.62,119.01l18.99,29.34,15.23-65.92h-7.57l-10.33,44.75-7.64-12.44,9.52-41.22h43.2ZM51.67,17.09h55.14l-12.82,9.94H38.79l12.89-9.94Z"/></svg>