<?xml version="1.0" standalone="no"?>
<!DOCTYPE svg PUBLIC "-//W3C//DTD SVG 20010904//EN"
 "http://www.w3.org/TR/2001/REC-SVG-20010904/DTD/svg10.dtd">
<svg version="1.0" xmlns="http://www.w3.org/2000/svg"
 width="256.000000pt" height="256.000000pt" viewBox="0 0 256.000000 256.000000"
 preserveAspectRatio="xMidYMid meet">

<g transform="translate(0.000000,256.000000) scale(0.100000,-0.100000)"
fill="#000000" stroke="none">
<path d="M638 2543 c-36 -23 -48 -53 -48 -123 l0 -60 -83 0 c-45 0 -109 -7
-142 -15 -125 -33 -247 -130 -304 -243 -62 -123 -61 -104 -61 -917 0 -804 1
-808 56 -917 36 -71 132 -169 203 -207 116 -61 103 -61 1021 -61 918 0 905 0
1021 61 71 38 167 136 203 207 55 109 56 114 56 908 0 453 -4 752 -10 785 -17
89 -71 190 -137 256 -101 100 -209 143 -360 143 l-83 0 0 60 c0 70 -17 111
-55 128 -44 20 -75 14 -111 -22 -32 -32 -34 -38 -34 -100 l0 -66 -490 0 -490
0 0 61 c0 68 -19 111 -57 128 -33 15 -63 13 -95 -6z m-48 -488 c0 -145 22
-185 102 -185 36 0 69 22 87 57 6 12 11 69 11 127 l0 106 490 0 490 0 0 -106
c0 -58 5 -115 11 -127 18 -35 51 -57 87 -57 80 0 102 40 102 186 l0 106 93 -4
c105 -5 148 -22 209 -84 59 -58 81 -115 86 -216 l4 -88 -1082 0 -1082 0 4 88
c5 101 27 158 86 216 65 66 113 84 225 85 l77 1 0 -105z m1768 -1062 l-3 -578
-24 -45 c-32 -61 -76 -107 -136 -138 l-50 -27 -865 0 -865 0 -50 27 c-60 31
-104 77 -136 138 l-24 45 -3 578 -3 577 1081 0 1081 0 -3 -577z"/>
<path d="M524 1246 c-46 -46 -46 -86 0 -132 l34 -34 131 0 c130 0 131 0 163
29 27 24 33 36 33 71 0 35 -6 47 -33 71 -32 29 -33 29 -163 29 l-131 0 -34
-34z"/>
<path d="M1114 1246 c-46 -46 -46 -86 0 -132 l34 -34 131 0 c130 0 131 0 163
29 27 24 33 36 33 71 0 35 -6 47 -33 71 -32 29 -33 29 -163 29 l-131 0 -34
-34z"/>
<path d="M1708 1251 c-27 -24 -33 -36 -33 -71 0 -35 6 -47 33 -71 32 -29 33
-29 162 -29 127 0 130 0 160 28 20 17 33 40 37 64 5 33 2 41 -30 73 l-35 35
-131 0 c-130 0 -131 0 -163 -29z"/>
<path d="M523 655 c-32 -32 -35 -40 -30 -73 4 -24 17 -47 37 -64 30 -28 33
-28 160 -28 129 0 130 0 162 29 27 24 33 36 33 71 0 35 -6 47 -33 71 -32 29
-33 29 -163 29 l-131 0 -35 -35z"/>
<path d="M1114 656 c-46 -46 -46 -86 0 -132 l34 -34 131 0 c130 0 131 0 163
29 27 24 33 36 33 71 0 35 -6 47 -33 71 -32 29 -33 29 -163 29 l-131 0 -34
-34z"/>
<path d="M1708 661 c-27 -24 -33 -36 -33 -71 0 -35 6 -47 33 -71 32 -29 33
-29 162 -29 127 0 130 0 160 28 20 17 33 40 37 64 5 33 2 41 -30 73 l-35 35
-131 0 c-130 0 -131 0 -163 -29z"/>
</g>
</svg>
