<?xml version="1.0" standalone="no"?>
<!DOCTYPE svg PUBLIC "-//W3C//DTD SVG 20010904//EN"
 "http://www.w3.org/TR/2001/REC-SVG-20010904/DTD/svg10.dtd">
<svg version="1.0" xmlns="http://www.w3.org/2000/svg"
 width="256.000000pt" height="256.000000pt" viewBox="0 0 256.000000 256.000000"
 preserveAspectRatio="xMidYMid meet">

<g transform="translate(0.000000,256.000000) scale(0.100000,-0.100000)"
fill="#000000" stroke="none">
<path d="M1170 2324 c-198 -51 -331 -224 -331 -429 0 -124 44 -227 134 -316
276 -271 748 -72 748 316 0 290 -272 502 -551 429z m210 -153 c75 -29 125 -74
160 -145 74 -150 15 -319 -137 -396 -68 -34 -178 -34 -246 0 -106 53 -168 151
-168 265 0 203 203 347 391 276z"/>
<path d="M439 1920 c-97 -17 -193 -91 -239 -185 -35 -71 -39 -180 -11 -256 30
-79 88 -141 169 -181 57 -28 76 -33 142 -33 66 0 85 5 142 33 127 62 193 172
186 312 -9 202 -188 344 -389 310z m163 -176 c103 -66 103 -231 -1 -301 -155
-104 -342 64 -260 234 47 97 167 128 261 67z"/>
<path d="M1998 1920 c-148 -25 -259 -154 -266 -310 -7 -140 59 -250 186 -312
57 -28 76 -33 142 -33 66 0 85 5 142 33 127 62 193 172 186 312 -9 202 -188
344 -390 310z m150 -167 c80 -38 117 -167 70 -248 -94 -161 -337 -98 -338 88
0 142 135 222 268 160z"/>
<path d="M955 1396 c-84 -27 -168 -88 -206 -150 l-17 -29 -219 -1 c-203 -1
-222 -3 -275 -24 -109 -44 -198 -147 -224 -261 -21 -85 -19 -504 1 -562 19
-54 67 -105 120 -130 38 -18 90 -19 1145 -19 1055 0 1107 1 1145 19 53 25 101
76 120 130 20 58 22 477 1 562 -26 114 -115 217 -224 261 -53 21 -72 23 -275
24 l-219 1 -17 29 c-28 45 -98 104 -160 133 l-56 26 -300 2 c-223 2 -310 -1
-340 -11z m667 -171 c54 -39 84 -83 97 -146 7 -30 11 -182 11 -379 l0 -330
-451 0 -450 0 3 358 c3 322 5 361 22 400 21 48 85 108 131 122 16 5 157 8 312
7 l281 -2 44 -30z m-958 -161 c14 -5 16 -46 16 -350 l0 -344 -240 0 -241 0
-24 25 -25 24 0 227 c0 141 4 241 11 265 17 55 65 108 123 135 47 22 64 24
208 24 86 0 163 -3 172 -6z m1612 -18 c58 -27 106 -80 123 -135 7 -24 11 -124
11 -265 l0 -227 -25 -24 -24 -25 -241 0 -240 0 0 344 c0 266 3 345 13 349 6 3
84 6 172 6 148 1 164 -1 211 -23z"/>
</g>
</svg>
