<?xml version="1.0" standalone="no"?>
<!DOCTYPE svg PUBLIC "-//W3C//DTD SVG 20010904//EN"
 "http://www.w3.org/TR/2001/REC-SVG-20010904/DTD/svg10.dtd">
<svg version="1.0" xmlns="http://www.w3.org/2000/svg"
 width="256.000000pt" height="256.000000pt" viewBox="0 0 256.000000 256.000000"
 preserveAspectRatio="xMidYMid meet">

<g transform="translate(0.000000,256.000000) scale(0.100000,-0.100000)"
fill="#000000" stroke="none">
<path d="M1123 2544 c-247 -49 -463 -215 -580 -449 -57 -112 -75 -188 -80
-335 -5 -123 -3 -144 20 -232 34 -125 56 -168 225 -433 92 -143 137 -222 129
-226 -7 -3 -41 -12 -77 -18 -218 -40 -429 -130 -522 -223 -104 -104 -105 -251
-3 -352 229 -229 922 -337 1510 -236 288 50 518 148 599 255 59 77 73 172 37
252 -59 129 -292 251 -581 304 -36 6 -70 15 -77 18 -8 4 35 79 123 216 225
350 260 443 251 675 -3 102 -10 152 -27 205 -95 298 -331 516 -624 576 -106
22 -222 23 -323 3z m352 -164 c111 -35 192 -85 280 -174 135 -137 195 -284
195 -475 0 -115 -19 -200 -63 -290 -41 -82 -596 -951 -607 -951 -14 0 -598
924 -621 982 -35 87 -48 158 -49 259 -1 323 215 592 534 665 85 19 241 12 331
-16z m-390 -1875 c97 -152 149 -224 168 -233 51 -25 71 -4 218 226 74 117 140
217 145 222 13 13 195 -19 314 -55 185 -55 320 -145 320 -215 0 -46 -57 -102
-154 -149 -121 -61 -278 -102 -496 -132 -124 -17 -516 -17 -640 0 -380 52
-650 169 -650 281 0 95 216 205 508 260 53 10 104 18 112 17 7 -1 77 -101 155
-222z"/>
<path d="M1165 2087 c-90 -30 -181 -111 -225 -202 -22 -43 -25 -64 -25 -155 0
-96 2 -110 29 -163 35 -68 112 -144 181 -178 43 -21 64 -24 155 -24 91 0 112
3 155 24 69 34 146 110 181 178 27 53 29 67 29 163 0 91 -3 112 -24 155 -34
69 -110 146 -178 180 -48 25 -71 30 -147 32 -56 2 -107 -2 -131 -10z m203
-153 c176 -73 176 -335 0 -408 -77 -33 -182 -14 -242 42 -84 79 -88 230 -8
316 58 62 169 84 250 50z"/>
</g>
</svg>
