<?xml version="1.0" standalone="no"?>
<!DOCTYPE svg PUBLIC "-//W3C//DTD SVG 20010904//EN"
 "http://www.w3.org/TR/2001/REC-SVG-20010904/DTD/svg10.dtd">
<svg version="1.0" xmlns="http://www.w3.org/2000/svg"
 width="256.000000pt" height="256.000000pt" viewBox="0 0 256.000000 256.000000"
 preserveAspectRatio="xMidYMid meet">

<g transform="translate(0.000000,256.000000) scale(0.100000,-0.100000)"
fill="#000000" stroke="none">
<path d="M1173 2545 c-81 -22 -132 -52 -193 -114 -164 -164 -168 -418 -9 -586
95 -100 196 -141 333 -133 114 7 182 36 262 110 177 166 187 423 24 601 -104
114 -268 162 -417 122z m222 -173 c116 -59 175 -188 141 -305 -21 -71 -65
-129 -123 -164 -42 -25 -58 -28 -133 -28 -75 0 -91 3 -133 28 -58 35 -102 93
-123 164 -39 134 43 277 186 324 41 14 142 3 185 -19z"/>
<path d="M1896 1898 c-110 -64 -106 -222 7 -279 40 -21 84 -22 143 -4 27 9
135 -99 187 -186 37 -64 74 -167 79 -224 l3 -30 -79 0 -79 0 -21 65 c-29 88
-69 155 -133 217 -60 59 -172 118 -252 133 -30 6 -236 10 -475 10 -466 0 -499
-4 -610 -63 -114 -61 -199 -165 -242 -297 l-21 -65 -183 -5 c-176 -5 -182 -6
-201 -29 -10 -13 -19 -32 -19 -42 0 -16 167 -486 215 -607 10 -23 26 -47 36
-52 10 -6 111 -10 228 -10 210 0 211 0 216 -22 2 -13 16 -97 29 -187 14 -91
32 -174 41 -187 20 -31 61 -41 94 -23 54 30 54 38 2 372 l-47 307 466 0 466 0
-47 -307 c-52 -334 -52 -342 2 -372 33 -18 74 -8 94 23 9 13 27 96 41 187 13
90 27 174 29 187 5 22 6 22 216 22 120 0 218 4 229 10 20 11 36 50 166 408 97
269 99 283 37 312 -25 12 -34 23 -38 50 -24 142 -67 253 -139 353 -45 63 -129
149 -178 181 -17 11 -28 27 -28 41 0 27 -36 81 -72 108 -41 31 -114 33 -162 5z
m-105 -489 c93 -44 166 -125 194 -216 l6 -23 -711 0 -711 0 7 23 c24 78 83
154 151 194 89 52 95 52 568 50 l440 -2 56 -26z m569 -406 c0 -5 -33 -98 -73
-208 l-74 -200 -160 -3 -160 -2 13 82 c18 113 18 125 -11 153 l-24 25 -591 0
-591 0 -24 -25 c-29 -28 -29 -40 -11 -153 l13 -82 -160 2 -160 3 -74 200 c-40
110 -73 203 -73 208 0 4 486 7 1080 7 594 0 1080 -3 1080 -7z"/>
</g>
</svg>
