<?xml version="1.0" standalone="no"?>
<!DOCTYPE svg PUBLIC "-//W3C//DTD SVG 20010904//EN"
 "http://www.w3.org/TR/2001/REC-SVG-20010904/DTD/svg10.dtd">
<svg version="1.0" xmlns="http://www.w3.org/2000/svg"
 width="256.000000pt" height="256.000000pt" viewBox="0 0 256.000000 256.000000"
 preserveAspectRatio="xMidYMid meet">

<g transform="translate(0.000000,256.000000) scale(0.100000,-0.100000)"
fill="#000000" stroke="none">
<path d="M78 2009 c-68 -35 -78 -71 -78 -273 0 -191 4 -206 59 -206 123 0 241
-123 241 -250 0 -127 -118 -250 -241 -250 -55 0 -59 -15 -59 -206 0 -202 9
-233 78 -272 l40 -22 1161 0 c1121 0 1163 1 1199 19 22 11 46 35 60 59 20 37
22 52 22 215 0 193 -4 207 -59 207 -123 0 -241 123 -241 250 0 127 118 250
241 250 55 0 59 15 59 206 0 204 -10 238 -80 274 -39 20 -56 20 -1202 20
-1138 -1 -1164 -1 -1200 -21z m522 -163 c0 -89 11 -116 50 -116 39 0 50 27 50
116 l0 84 864 0 c779 0 866 -2 881 -16 13 -13 15 -38 13 -151 l-3 -136 -42
-12 c-100 -30 -176 -96 -222 -195 -37 -79 -37 -201 0 -280 46 -99 122 -165
222 -195 l42 -12 3 -136 c2 -113 0 -138 -13 -151 -15 -14 -102 -16 -881 -16
l-864 0 0 84 c0 89 -11 116 -50 116 -39 0 -50 -27 -50 -116 l0 -84 -234 0
c-202 0 -237 2 -251 16 -13 13 -15 38 -13 151 l3 136 42 12 c100 30 176 96
222 195 37 79 37 201 0 280 -46 99 -122 165 -222 195 l-42 12 -3 136 c-2 113
0 138 13 151 14 14 49 16 251 16 l234 0 0 -84z"/>
<path d="M616 1614 c-12 -11 -16 -35 -16 -84 0 -73 14 -100 50 -100 36 0 50
27 50 100 0 73 -14 100 -50 100 -10 0 -26 -7 -34 -16z"/>
<path d="M1016 1614 c-9 -8 -16 -24 -16 -34 0 -10 7 -26 16 -34 14 -14 70 -16
464 -16 394 0 450 2 464 16 9 8 16 24 16 34 0 10 -7 26 -16 34 -14 14 -70 16
-464 16 -394 0 -450 -2 -464 -16z"/>
<path d="M616 1314 c-31 -30 -9 -84 34 -84 10 0 26 7 34 16 31 30 9 84 -34 84
-10 0 -26 -7 -34 -16z"/>
<path d="M1016 1314 c-9 -8 -16 -24 -16 -34 0 -10 7 -26 16 -34 14 -14 70 -16
464 -16 394 0 450 2 464 16 20 20 20 48 0 68 -14 14 -70 16 -464 16 -394 0
-450 -2 -464 -16z"/>
<path d="M616 1114 c-12 -11 -16 -35 -16 -84 0 -73 14 -100 50 -100 36 0 50
27 50 100 0 73 -14 100 -50 100 -10 0 -26 -7 -34 -16z"/>
<path d="M1016 1014 c-9 -8 -16 -24 -16 -34 0 -10 7 -26 16 -34 14 -14 70 -16
464 -16 394 0 450 2 464 16 9 8 16 24 16 34 0 10 -7 26 -16 34 -14 14 -70 16
-464 16 -394 0 -450 -2 -464 -16z"/>
</g>
</svg>
