<?xml version="1.0" standalone="no"?>
<!DOCTYPE svg PUBLIC "-//W3C//DTD SVG 20010904//EN"
 "http://www.w3.org/TR/2001/REC-SVG-20010904/DTD/svg10.dtd">
<svg version="1.0" xmlns="http://www.w3.org/2000/svg"
 width="256.000000pt" height="256.000000pt" viewBox="0 0 256.000000 256.000000"
 preserveAspectRatio="xMidYMid meet">

<g transform="translate(0.000000,256.000000) scale(0.100000,-0.100000)"
fill="#000000" stroke="none">
<path d="M1650 2538 c-36 -13 -384 -207 -775 -431 -638 -366 -716 -413 -766
-466 -95 -99 -103 -129 -107 -418 -4 -302 -4 -303 116 -333 45 -12 82 -54 82
-95 0 -41 -37 -83 -82 -95 -114 -29 -122 -44 -116 -239 4 -118 9 -156 26 -200
44 -110 121 -189 229 -233 l58 -23 860 -3 c570 -2 876 1 910 8 159 33 281 153
314 308 6 29 11 108 11 175 0 148 -13 179 -82 197 -24 6 -51 14 -61 16 -22 7
-57 61 -57 89 0 41 37 83 82 95 24 6 51 14 61 16 39 12 57 63 57 162 l0 94 41
46 c95 108 129 242 94 371 -17 65 -127 267 -162 299 -23 21 -33 23 -77 17
-103 -12 -124 -10 -151 15 -30 28 -41 79 -25 110 7 13 30 40 51 60 28 26 39
45 39 66 0 37 -104 223 -160 286 -95 109 -273 155 -410 106z m184 -190 c48
-15 102 -67 134 -130 l23 -45 -24 -36 c-74 -109 -55 -269 43 -367 54 -54 118
-82 202 -88 l68 -5 40 -80 c38 -75 48 -124 34 -161 -5 -12 -16 -4 -51 34 -30
33 -69 62 -121 87 l-76 38 -171 3 -170 4 3 38 c5 47 -10 75 -50 96 -70 36
-143 -14 -136 -93 l3 -43 -273 0 c-290 0 -317 -4 -342 -49 -13 -25 -13 -77 0
-101 24 -44 30 -45 581 -50 l525 -5 41 -27 c66 -44 87 -87 91 -194 l4 -92 -31
-17 c-52 -27 -111 -85 -139 -139 -22 -43 -27 -64 -27 -131 0 -67 5 -88 27
-131 28 -54 87 -112 139 -139 l31 -17 -4 -86 c-5 -99 -26 -143 -95 -190 l-38
-27 -870 0 -870 0 -38 27 c-68 47 -90 91 -95 189 l-4 86 45 26 c94 55 157 160
157 262 0 102 -63 207 -157 262 l-45 26 4 91 c4 107 25 150 91 194 36 24 51
27 166 32 160 7 191 23 191 100 0 72 -33 93 -156 100 l-91 5 619 355 c340 195
640 365 666 377 54 26 87 28 146 11z"/>
<path d="M1435 2026 c-32 -32 -40 -69 -25 -107 17 -39 46 -59 90 -59 44 0 73
20 90 59 26 64 -20 131 -90 131 -30 0 -47 -6 -65 -24z"/>
<path d="M1624 1240 c-12 -4 -31 -21 -44 -37 -42 -54 -3 -137 72 -149 30 -5
41 -1 69 24 28 25 34 37 34 72 0 35 -6 47 -33 71 -33 29 -60 35 -98 19z"/>
<path d="M1624 890 c-12 -4 -31 -21 -44 -37 -42 -54 -3 -137 72 -149 30 -5 41
-1 69 24 28 25 34 37 34 72 0 35 -6 47 -33 71 -33 29 -60 35 -98 19z"/>
<path d="M1624 540 c-12 -4 -31 -21 -44 -37 -42 -54 -3 -137 72 -149 30 -5 41
-1 69 24 28 25 34 37 34 72 0 35 -6 47 -33 71 -33 29 -60 35 -98 19z"/>
</g>
</svg>
